# xmcd
#
# Track frame offsets: 
#        150
#        22123
#        42588
#        61260
#        78555
#        99897
#        108520
#        131663
#        150695
#        170226
#        191473
#        214848
#        230509
#        251193
#        260406
#        278866
#        285696
#        298877
#
# Disc length: 4200 seconds
#
# Revision: 1
# Processed by: cddbd v1.5.2PL0 Copyright (c) Steve Scherf et al.
# Submitted via: ExactAudioCopyFreeDBPlugin 1.0
#
DISCID=18106612
DTITLE=Quadro Nuevo - Tango bitter sweet
DYEAR=2006
DGENRE=Jazz
TTITLE0=l'été indien
TTITLE1=swing vagabond
TTITLE2=petite fleur
TTITLE3=tango bitter sweet
TTITLE4=paroles, paroles
TTITLE5=the windmills of your mind
TTITLE6=tango jalousie
TTITLE7=avant de mourir'- son nefes
TTITLE8=malafemmena
TTITLE9=milonga tati
TTITLE10=et maintenant
TTITLE11=an einem winterabend
TTITLE12=müde sonne
TTITLE13=isla de las mujeres
TTITLE14=gloomy sunday
TTITLE15=afternoon
TTITLE16=at night
TTITLE17=sabre dance - säbeltanz - danse du sabre
EXTD=YEAR: 2006
EXTT0=
EXTT1=
EXTT2=
EXTT3=
EXTT4=
EXTT5=
EXTT6=
EXTT7=
EXTT8=
EXTT9=
EXTT10=
EXTT11=
EXTT12=
EXTT13=
EXTT14=
EXTT15=
EXTT16=
EXTT17=
PLAYORDER=
